<?xml version="1.0" encoding="UTF-8"?>
<svg id="uuid-6859ff08-57eb-49e8-ade0-a013d5df962c" data-name="Layer 1" xmlns="http://www.w3.org/2000/svg" viewBox="0 0 404.13 404.13">
  <g>
    <path d="M91.97,11.5h220.18c44.41,0,80.47,36.06,80.47,80.47v220.18c0,44.41-36.06,80.47-80.47,80.47H91.97c-44.41,0-80.47-36.06-80.47-80.47V91.97C11.5,47.56,47.56,11.5,91.97,11.5Z" fill="#01003f"/>
    <path d="M312.16,23c38.03,0,68.97,30.94,68.97,68.97v220.18c0,38.03-30.94,68.97-68.97,68.97H91.97c-38.03,0-68.97-30.94-68.97-68.97V91.97c0-38.03,30.94-68.97,68.97-68.97h220.18M312.16,0H91.97C41.18,0,0,41.18,0,91.97v220.18c0,50.8,41.18,91.97,91.97,91.97h220.18c50.79,0,91.97-41.18,91.97-91.97V91.97c0-50.8-41.18-91.97-91.97-91.97h0Z" fill="#7fd2ff"/>
  </g>
  <polygon points="317.87 178.85 265.98 178.85 209.03 178.85 209.03 225.28 265.98 225.28 265.98 259.77 152.08 259.77 152.08 145.88 265.98 145.88 265.98 158.39 317.87 158.39 317.87 91.26 96.27 91.26 96.27 312.87 317.87 312.87 317.87 225.28 317.87 225.28 317.87 178.85 317.87 178.85" fill="#8af3ff"/>
</svg>